<svg width="767" height="250" viewBox="0 0 767 250" fill="none" xmlns="http://www.w3.org/2000/svg">
<path d="M73.5059 76.4688L106.045 157.68L138.584 76.4688H155.605V176H142.48V137.24L143.711 95.4043L111.035 176H100.986L68.3789 95.6094L69.6777 137.24V176H56.5527V76.4688H73.5059ZM222.461 176C221.732 174.542 221.139 171.944 220.684 168.207C214.805 174.314 207.786 177.367 199.629 177.367C192.337 177.367 186.344 175.316 181.65 171.215C177.002 167.068 174.678 161.827 174.678 155.492C174.678 147.79 177.594 141.82 183.428 137.582C189.307 133.298 197.555 131.156 208.174 131.156H220.479V125.346C220.479 120.925 219.157 117.416 216.514 114.818C213.87 112.175 209.974 110.854 204.824 110.854C200.312 110.854 196.53 111.993 193.477 114.271C190.423 116.55 188.896 119.307 188.896 122.543H176.182C176.182 118.852 177.48 115.297 180.078 111.879C182.721 108.415 186.276 105.681 190.742 103.676C195.254 101.671 200.199 100.668 205.576 100.668C214.098 100.668 220.775 102.81 225.605 107.094C230.436 111.332 232.943 117.188 233.125 124.662V158.705C233.125 165.495 233.991 170.896 235.723 174.906V176H222.461ZM201.475 166.361C205.439 166.361 209.199 165.336 212.754 163.285C216.309 161.234 218.883 158.568 220.479 155.287V140.111H210.566C195.072 140.111 187.324 144.646 187.324 153.715C187.324 157.68 188.646 160.779 191.289 163.012C193.932 165.245 197.327 166.361 201.475 166.361ZM273.594 141.752L265.664 150.023V176H253.018V71H265.664V134.506L272.432 126.371L295.469 102.035H310.85L282.07 132.934L314.199 176H299.365L273.594 141.752ZM353.232 177.367C343.206 177.367 335.049 174.086 328.76 167.523C322.471 160.915 319.326 152.097 319.326 141.068V138.744C319.326 131.407 320.716 124.867 323.496 119.125C326.322 113.337 330.241 108.826 335.254 105.59C340.312 102.309 345.781 100.668 351.66 100.668C361.276 100.668 368.75 103.835 374.082 110.17C379.414 116.505 382.08 125.574 382.08 137.377V142.641H331.973C332.155 149.932 334.274 155.834 338.33 160.346C342.432 164.812 347.627 167.045 353.916 167.045C358.382 167.045 362.165 166.133 365.264 164.311C368.363 162.488 371.074 160.072 373.398 157.064L381.123 163.08C374.925 172.605 365.628 177.367 353.232 177.367ZM351.66 111.059C346.556 111.059 342.272 112.927 338.809 116.664C335.345 120.355 333.203 125.551 332.383 132.25H369.434V131.293C369.069 124.867 367.337 119.9 364.238 116.391C361.139 112.836 356.947 111.059 351.66 111.059ZM432.529 113.383C430.615 113.064 428.542 112.904 426.309 112.904C418.014 112.904 412.386 116.436 409.424 123.5V176H396.777V102.035H409.082L409.287 110.58C413.434 103.972 419.313 100.668 426.924 100.668C429.385 100.668 431.253 100.987 432.529 101.625V113.383ZM487.285 156.381C487.285 152.963 485.986 150.32 483.389 148.451C480.837 146.537 476.348 144.896 469.922 143.529C463.542 142.162 458.46 140.521 454.678 138.607C450.941 136.693 448.161 134.415 446.338 131.771C444.561 129.128 443.672 125.984 443.672 122.338C443.672 116.277 446.224 111.15 451.328 106.957C456.478 102.764 463.04 100.668 471.016 100.668C479.401 100.668 486.191 102.833 491.387 107.162C496.628 111.492 499.248 117.029 499.248 123.773H486.533C486.533 120.31 485.052 117.325 482.09 114.818C479.173 112.312 475.482 111.059 471.016 111.059C466.413 111.059 462.812 112.061 460.215 114.066C457.617 116.072 456.318 118.692 456.318 121.928C456.318 124.981 457.526 127.283 459.941 128.832C462.357 130.382 466.709 131.863 472.998 133.275C479.333 134.688 484.46 136.374 488.379 138.334C492.298 140.294 495.192 142.663 497.061 145.443C498.975 148.178 499.932 151.527 499.932 155.492C499.932 162.1 497.288 167.41 492.002 171.42C486.715 175.385 479.857 177.367 471.426 177.367C465.501 177.367 460.26 176.319 455.703 174.223C451.146 172.126 447.568 169.21 444.971 165.473C442.419 161.69 441.143 157.611 441.143 153.236H453.789C454.017 157.475 455.703 160.847 458.848 163.354C462.038 165.814 466.23 167.045 471.426 167.045C476.211 167.045 480.039 166.088 482.91 164.174C485.827 162.214 487.285 159.617 487.285 156.381Z" fill="#383434"/>
<path d="M516.68 169.369C516.68 167.182 517.318 165.359 518.594 163.9C519.915 162.442 521.875 161.713 524.473 161.713C527.07 161.713 529.03 162.442 530.352 163.9C531.719 165.359 532.402 167.182 532.402 169.369C532.402 171.465 531.719 173.22 530.352 174.633C529.03 176.046 527.07 176.752 524.473 176.752C521.875 176.752 519.915 176.046 518.594 174.633C517.318 173.22 516.68 171.465 516.68 169.369Z" fill="#151515"/>
<path d="M599.766 62.25H623.203V141C623.203 148.24 621.589 154.646 618.359 160.219C615.182 165.74 610.677 170.01 604.844 173.031C599.01 176.052 592.422 177.562 585.078 177.562C573.047 177.562 563.672 174.516 556.953 168.422C550.234 162.276 546.875 153.604 546.875 142.406H570.469C570.469 147.979 571.641 152.094 573.984 154.75C576.328 157.406 580.026 158.734 585.078 158.734C589.557 158.734 593.125 157.198 595.781 154.125C598.438 151.052 599.766 146.677 599.766 141V62.25ZM702.266 146.156C702.266 141.729 700.703 138.344 697.578 136C694.453 133.604 688.828 131.104 680.703 128.5C672.578 125.844 666.146 123.24 661.406 120.688C648.49 113.708 642.031 104.307 642.031 92.4844C642.031 86.3385 643.75 80.8698 647.188 76.0781C650.677 71.2344 655.651 67.4583 662.109 64.75C668.62 62.0417 675.911 60.6875 683.984 60.6875C692.109 60.6875 699.349 62.1719 705.703 65.1406C712.057 68.0573 716.979 72.1979 720.469 77.5625C724.01 82.9271 725.781 89.0208 725.781 95.8438H702.344C702.344 90.6354 700.703 86.599 697.422 83.7344C694.141 80.8177 689.531 79.3594 683.594 79.3594C677.865 79.3594 673.411 80.5833 670.234 83.0312C667.057 85.4271 665.469 88.6042 665.469 92.5625C665.469 96.2604 667.318 99.3594 671.016 101.859C674.766 104.359 680.26 106.703 687.5 108.891C700.833 112.901 710.547 117.875 716.641 123.812C722.734 129.75 725.781 137.146 725.781 146C725.781 155.844 722.057 163.578 714.609 169.203C707.161 174.776 697.135 177.562 684.531 177.562C675.781 177.562 667.812 175.974 660.625 172.797C653.438 169.568 647.943 165.167 644.141 159.594C640.391 154.021 638.516 147.562 638.516 140.219H662.031C662.031 152.771 669.531 159.047 684.531 159.047C690.104 159.047 694.453 157.927 697.578 155.688C700.703 153.396 702.266 150.219 702.266 146.156Z" fill="#0E39D0"/>
<rect x="6" y="6" width="755" height="238" stroke="#0E39D0" stroke-width="12"/>
</svg>
